<?xml version="1.0" standalone="no"?>
<svg viewBox="0 0 1440 320" xmlns="http://www.w3.org/2000/svg" preserveAspectRatio="none">
    <path fill="#ffffff" fill-opacity="1" d="M -85 321 H 1512 V 220 C 1493.6 215.6 1481.8 200.2 1476.2 181.8 C 1470.8 163.6 1452.4 153.2 1434.6 156.4 C 1424.4 158.2 1417.8 167.2 1414.6 177 C 1406 142.2 1373.2 118.8 1337.8 123.8 C 1308.8 127.8 1285.8 150.2 1279 178.6 C 1275.6 177.2 1272.2 176.4 1269 176.4 C 1242 176.4 1217.4 191.6 1205.8 215.2 C 1195.8 203.8 1181.2 196.4 1165.2 196.4 C 1134.8 196.4 1110 219.6 1107.6 249.2 C 1102.6 247.4 1097.2 246.6 1092 246.6 C 1061.2 246.6 1035.4 267.4 1028.2 296 C 1021.2 271.8 1000.8 252.8 975 249.2 C 969.8 248.4 964.4 249.4 959.8 251.6 C 948.2 221.8 919.2 201 886.6 201 C 854.6 201 826 221 814.2 250.2 C 807.8 248 801 247 794.2 247 C 765.4 247 740.2 263.6 728.6 287.6 C 723.2 286.2 717.8 285.4 712.2 285.4 C 674.8 285.4 642.4 309.8 631 343.8 C 625 316.8 601 296.6 573 296.6 C 570.6 296.6 568 296.8 565.6 297.2 C 556.8 274.6 534.6 258.8 509.2 258.8 C 500.4 258.8 491.8 261 484.2 265 C 476.4 227.6 443 199.6 403.4 199.6 C 362 199.6 327.4 229.8 321.4 269.4 C 314.8 263 306 259 296.4 259 C 275.6 259 257.6 271.4 249.4 289 C 242 278.4 229.6 271.4 215.6 271.4 C 196.6 271.4 180.2 283.4 173.6 299.8 C 167.6 288.6 155.8 281 142.2 281 C 122.2 281 105.8 296.6 104.2 316 C 103.2 316 102.2 316 101.2 316 C 89.2 316 78 321 70.2 329 C 64 306 43 288.8 17.6 288.8 C 15.4 288.8 13.2 289 11.2 289.4 C 2.4 266.8 -19.8 251 -45.2 251 C -54 251 -62.6 253.2 -70.2 257.2 C -78 219.8 -111.4 191.8 -151 191.8 L -85 321 Z"></path>
</svg>
